<svg width="512" height="512" viewBox="0 0 512 512" fill="none" xmlns="http://www.w3.org/2000/svg">
<g clip-path="url(#clip0_15_133)">
<path d="M120.874 252.808C120.874 255.813 119.832 258.98 117.748 262.309C114.987 266.721 110.981 270.145 105.729 272.581C100.911 274.801 95.7141 275.911 90.138 275.911H82.058L90.95 250.697H99.8014L92.2493 271.972C95.4975 271.972 98.7051 270.984 101.872 269.008C105.039 267.032 107.353 264.583 108.815 261.659C110.114 259.088 110.764 256.936 110.764 255.204C110.764 252.388 109.979 250.372 108.409 249.154C107.002 248.071 104.836 247.53 101.913 247.53H78.1602L81.9362 241.317H105.729C109.844 241.317 113.268 242.184 116.002 243.916C119.25 245.973 120.874 248.937 120.874 252.808ZM138.699 249.113C138.699 250.764 138.049 252.158 136.75 253.295C135.505 254.432 133.989 255 132.202 255C130.362 255 128.805 254.432 127.533 253.295C126.288 252.158 125.665 250.764 125.665 249.113C125.665 247.489 126.288 246.109 127.533 244.972C128.805 243.808 130.362 243.226 132.202 243.226C133.989 243.226 135.505 243.808 136.75 244.972C138.049 246.109 138.699 247.489 138.699 249.113ZM130.416 271.972H140.445C140.012 273.407 139.132 274.476 137.806 275.18C136.831 275.667 135.775 275.911 134.639 275.911H124.934C122.58 275.911 121.402 274.923 121.402 272.947C121.402 272.406 121.524 271.81 121.767 271.16L126.031 259.183H134.963L130.416 271.972ZM152.179 271.972H171.343C170.991 273.245 170.206 274.246 168.988 274.977C167.879 275.6 166.62 275.911 165.212 275.911H151.529C143.571 275.911 139.592 273.515 139.592 268.724C139.592 265.638 140.945 263.216 143.652 261.456C146.007 259.94 148.795 259.183 152.016 259.183H155.59C157.674 259.183 159.501 259.507 161.071 260.157C163.182 261.023 164.278 262.323 164.36 264.055C164.441 265.814 163.602 267.263 161.842 268.399H153.681L156.361 263.121H151.164L149.134 269.049C149.025 269.401 148.971 269.712 148.971 269.983C148.971 271.309 150.04 271.972 152.179 271.972ZM191.076 271.972H200.902C200.848 273.082 200.212 274.016 198.994 274.774C197.83 275.532 196.544 275.911 195.137 275.911H176.459C172.859 275.911 171.059 274.815 171.059 272.622C171.059 272.433 171.073 272.216 171.1 271.972C171.235 270.998 171.763 270.24 172.683 269.699C173.468 269.211 174.361 268.981 175.363 269.008C177.15 269.063 179.559 270.037 182.59 271.932C183.456 270.849 183.89 269.753 183.89 268.643C183.89 268.075 183.538 266.802 182.834 264.826L180.073 267.344H175.119L181.656 261.335C181.386 260.82 181.183 260.401 181.047 260.076C180.831 259.453 180.723 258.763 180.723 258.005L186.772 251.549C189.479 252.009 190.833 253.255 190.833 255.285C190.833 256.449 190.481 257.531 189.777 258.533C190.4 260.13 191.022 261.741 191.645 263.365C192.403 265.422 192.782 267.087 192.782 268.359C192.782 269.766 192.213 270.971 191.076 271.972ZM212.596 271.972H231.76C231.408 273.245 230.623 274.246 229.405 274.977C228.295 275.6 227.037 275.911 225.629 275.911H211.946C203.988 275.911 200.009 273.515 200.009 268.724C200.009 265.638 201.362 263.216 204.069 261.456C206.424 259.94 209.212 259.183 212.433 259.183H216.006C218.091 259.183 219.918 259.507 221.488 260.157C223.572 261.023 224.668 262.323 224.776 264.055C224.858 265.814 224.019 267.263 222.259 268.399H214.098L216.737 263.121H211.581L209.55 269.049C209.442 269.401 209.388 269.712 209.388 269.983C209.388 271.309 210.457 271.972 212.596 271.972ZM240.327 271.972H250.64C250.234 273.434 249.287 274.503 247.798 275.18C246.77 275.667 245.66 275.911 244.469 275.911H235.008C232.599 275.911 231.395 275.085 231.395 273.434C231.395 273.001 231.476 272.514 231.638 271.972L240.774 246.271H249.463L240.327 271.972ZM293.314 271.972H303.383C302.95 273.407 302.003 274.476 300.541 275.18C299.513 275.667 298.403 275.911 297.212 275.911H287.426C285.18 275.911 284.056 275.166 284.056 273.678C284.056 273.19 284.165 272.622 284.381 271.972L286.249 266.694L277.804 273.84C275.828 275.221 274.204 275.911 272.931 275.911H268.384L274.271 259.183H283.123L280.362 267.059L287.873 260.928C289.903 259.25 292.109 258.452 294.491 258.533C296.088 258.587 296.887 259.44 296.887 261.091C296.887 261.686 296.752 262.363 296.481 263.121L293.314 271.972ZM324.659 271.972H334.85C334.065 274.598 332.062 275.911 328.841 275.911H319.503C316.85 275.911 315.524 275.058 315.524 273.353C313.737 275.383 311.544 276.398 308.946 276.398C307.024 276.398 305.468 275.803 304.277 274.612C303.058 273.448 302.449 271.918 302.449 270.023C302.449 266.586 303.762 263.879 306.388 261.903C308.77 260.089 311.72 259.183 315.239 259.183H329.247L324.659 271.972ZM315.889 271.972L319.015 263.121H313.575L311.869 268.846C311.761 269.225 311.707 269.55 311.707 269.82C311.707 271.255 313.101 271.972 315.889 271.972ZM346.706 271.972H365.587C365.235 273.245 364.477 274.233 363.313 274.936C362.284 275.586 361.066 275.911 359.659 275.911H344.879C342.037 275.911 339.669 275.437 337.774 274.49C335.338 273.299 334.12 271.499 334.12 269.09C334.12 268.819 334.133 268.548 334.16 268.278C334.485 265.327 336.014 263.026 338.748 261.375C341.13 259.913 343.959 259.183 347.234 259.183H353.406C354.813 259.183 356.004 259.629 356.979 260.522C357.953 261.416 358.441 262.498 358.441 263.771C358.441 265.07 357.94 266.166 356.938 267.059C355.964 267.953 354.786 268.399 353.406 268.399C352.025 268.399 350.834 267.953 349.833 267.059C348.885 266.139 348.412 265.029 348.412 263.73C348.412 263.73 348.412 263.527 348.412 263.121H345.448L343.539 268.562C343.377 269.022 343.296 269.442 343.296 269.82C343.296 271.255 344.433 271.972 346.706 271.972ZM382.193 249.113C382.193 250.764 381.557 252.158 380.285 253.295C379.013 254.432 377.483 255 375.697 255C373.883 255 372.34 254.432 371.068 253.295C369.796 252.158 369.16 250.764 369.16 249.113C369.16 247.489 369.796 246.109 371.068 244.972C372.34 243.808 373.883 243.226 375.697 243.226C377.483 243.226 379.013 243.808 380.285 244.972C381.557 246.109 382.193 247.489 382.193 249.113ZM373.951 271.972H383.98C383.547 273.407 382.653 274.476 381.3 275.18C380.352 275.667 379.31 275.911 378.173 275.911H368.469C366.114 275.911 364.937 274.923 364.937 272.947C364.937 272.406 365.059 271.81 365.302 271.16L369.566 259.183H378.498L373.951 271.972ZM395.308 259.183H425.8C425.151 261.808 423.188 263.121 419.913 263.121H404.525C405.066 263.5 405.513 264.163 405.865 265.111C406.189 266.058 406.325 266.897 406.271 267.628C406.054 270.362 404.849 272.5 402.657 274.043C400.573 275.532 397.866 276.29 394.536 276.317C390.666 276.344 387.688 275.586 385.604 274.043C383.763 272.663 382.843 270.849 382.843 268.602C382.843 268.142 382.883 267.696 382.965 267.263C383.398 264.799 384.629 262.864 386.659 261.456C388.825 259.94 391.708 259.183 395.308 259.183ZM395.754 272.46L399.003 263.121H393.399L391.166 269.414C391.058 269.739 391.004 270.051 391.004 270.348C391.004 271.756 392.317 272.46 394.942 272.46C395.24 272.46 395.511 272.46 395.754 272.46ZM436.844 271.972H446.914C446.481 273.434 445.533 274.503 444.072 275.18C443.043 275.667 441.933 275.911 440.742 275.911H430.957C428.71 275.911 427.587 275.18 427.587 273.718C427.587 273.231 427.695 272.649 427.912 271.972L429.78 266.694L421.334 273.84C419.358 275.221 417.734 275.911 416.462 275.911H411.914L417.802 259.183H426.694L423.892 267.059L431.404 260.928C433.434 259.277 435.64 258.479 438.022 258.533C439.619 258.614 440.417 259.467 440.417 261.091C440.417 261.686 440.282 262.363 440.011 263.121L436.844 271.972ZM468.19 271.972H478.381C477.596 274.598 475.593 275.911 472.372 275.911H463.033C460.38 275.911 459.054 275.058 459.054 273.353C457.268 275.383 455.075 276.398 452.476 276.398C450.555 276.398 448.998 275.816 447.807 274.652C446.616 273.461 446.021 271.918 446.021 270.023C446.021 266.586 447.32 263.879 449.918 261.903C452.3 260.089 455.251 259.183 458.77 259.183H472.818L468.19 271.972ZM459.379 271.972L462.505 263.162H457.064L455.359 268.887C455.251 269.239 455.197 269.563 455.197 269.861C455.197 271.269 456.591 271.972 459.379 271.972ZM487.029 271.972H497.342C496.936 273.434 496.003 274.503 494.541 275.18C493.485 275.667 492.375 275.911 491.211 275.911H481.751C479.315 275.911 478.097 275.085 478.097 273.434C478.097 273.001 478.191 272.514 478.381 271.972L487.476 246.271H496.206L487.029 271.972Z" fill="#C19D60"/>
<path d="M24.0369 228.65C24.0369 228.893 23.1842 229.34 22.1691 229.665C19.53 230.436 17.0938 233.116 14.211 238.232C11.8966 242.373 11.8154 242.698 12.6275 243.307C14.0486 244.322 23.103 249.357 23.2248 249.154C23.306 249.113 23.8338 248.261 24.3617 247.327C24.8895 246.393 26.5948 243.51 28.1377 240.871L30.8987 236.202L29.1528 233.4C28.0159 231.695 26.7572 230.396 25.8234 229.989C24.3211 229.299 24.3211 229.299 25.4985 229.259C27.4881 229.259 28.7062 230.477 31.5077 235.268C35.7304 242.495 35.6086 241.642 32.807 243.348C31.4265 244.2 30.3709 244.972 30.3709 245.134C30.3709 245.256 33.8221 245.378 38.0854 245.378H45.7593L49.2105 238.76C51.1595 235.146 52.5805 232.101 52.3775 231.979C52.1745 231.857 51.0376 232.426 49.7384 233.197C48.4797 234.009 47.2616 234.618 47.0586 234.618C46.8556 234.618 46.0435 233.563 45.3127 232.223C43.0795 228.487 42.5111 228.284 32.604 228.284C27.8941 228.284 24.0369 228.487 24.0369 228.65Z" fill="#C19D60"/>
<path d="M44.9066 247.449C41.9832 249.114 39.6282 250.738 39.6282 251.063C39.6282 251.509 43.4855 258.615 46.2871 263.243C46.8149 264.096 47.2209 264.218 49.9819 264.015C51.6466 263.934 53.758 263.487 54.5294 263.04L55.9911 262.31L54.8136 263.609C53.6768 264.908 53.555 264.908 46.6119 264.908H39.6282V261.985C39.6282 260.361 39.4658 259.021 39.2222 259.021C38.7756 259.021 31.8325 271.729 31.8325 272.623C31.8325 273.435 38.9786 284.6 39.6282 284.803C40.1155 285.007 40.1967 284.276 39.9531 281.799L39.547 278.551H42.3486C46.2465 278.551 48.0736 277.657 49.6977 274.815C50.4286 273.557 52.4181 270.105 54.0828 267.223C55.7475 264.34 56.925 261.985 56.722 261.863C56.4784 261.782 56.4784 260.807 56.7626 259.63C57.0874 258.209 57.0874 256.869 56.722 255.57C56.1941 253.58 51.0376 244.404 50.4692 244.404C50.3067 244.444 47.7894 245.825 44.9066 247.449Z" fill="#C19D60"/>
<path d="M5.725 246.677C3.04523 246.799 0.649667 247.083 0.446654 247.286C0.203038 247.53 1.25871 248.342 2.7204 249.235L5.48139 250.737L4.01969 253.661C3.20764 255.285 2.55799 257.031 2.55799 257.64C2.55799 258.208 3.89788 261.051 5.52199 263.852C7.1867 266.694 9.09503 270.064 9.82588 271.404C10.5161 272.663 11.2876 273.637 11.5312 273.556C11.7342 273.475 12.5869 274.043 13.3583 274.774C15.4697 276.723 19.0021 277.576 24.8489 277.576H29.8836V270.755V263.933H22.1285H14.414L13.0335 266.938C12.3026 268.603 11.653 270.673 11.7342 271.485C11.7342 272.704 11.653 272.785 11.3282 271.973C10.3537 269.618 10.9221 268.075 16.4441 258.736L17.378 257.234L19.7735 258.655C21.0728 259.426 22.4127 259.954 22.6563 259.914C22.8999 259.832 21.9255 257.924 20.545 255.61C19.1239 253.336 17.3374 250.291 16.4847 248.91C14.9824 246.393 14.9418 246.352 12.7899 246.434C11.5718 246.474 8.40478 246.637 5.725 246.677Z" fill="#C19D60"/>
</g>
<defs>
<clipPath id="clip0_15_133">
<rect width="512" height="56.8438" fill="white" transform="translate(0 228)"/>
</clipPath>
</defs>
</svg>
