<svg width="512" height="512" viewBox="0 0 512 512" fill="none" xmlns="http://www.w3.org/2000/svg">
<g clip-path="url(#clip0_15_49)">
<path d="M330.719 237.171L239.528 122.23L148.337 237.171L133.411 237.074L232.463 112.153L246.717 112.276L345.619 237.056L330.719 237.171Z" fill="#152042"/>
<path d="M243.803 248.573C230.078 245.827 217.404 256.363 217.377 270.079L217.262 329.652H206.487L206.531 270.3C206.54 252.627 220.53 237.966 238.177 237.242C256.91 236.482 272.507 251.594 272.516 270.327L272.542 329.652L261.767 329.67L261.697 270.291C261.688 259.781 254.322 250.675 243.803 248.573Z" fill="#152042"/>
<path d="M336.955 343.977C327.505 344.445 318.549 339.305 315.528 330.323C302.863 328.468 292.821 318.232 292.238 305.311C291.858 296.832 291.902 288.644 292.212 280.157C292.733 265.769 304.921 254.685 318.884 254.738C332.848 254.791 345.663 265.981 345.681 280.501L345.699 304.127C345.708 316.395 337.008 326.675 325.049 329.758C327.549 333.706 332.141 335.26 336.884 335.437L336.946 343.977H336.955ZM336.849 303.579L336.761 280.439C336.725 270.804 328.158 263.526 318.876 263.508C309.673 263.499 301.229 270.812 300.991 280.404C300.788 288.777 300.682 296.673 301.035 305.028C301.441 314.831 310.344 321.95 319.715 321.473C329.086 320.996 336.893 313.454 336.849 303.571V303.579Z" fill="#63A67A"/>
<path d="M178.119 302.891L142.172 302.926L142.101 329.582C138.984 329.846 136.308 329.811 133.172 329.582L133.331 280.908C133.375 266.035 147.445 252.751 163.696 255.003C176.573 256.787 186.871 267.704 186.898 280.881L187.004 329.599C183.86 329.811 181.183 329.802 178.11 329.582C178.384 320.537 178.419 311.891 178.11 302.882L178.119 302.891ZM178.11 293.997V280.811C178.092 271.113 169.534 263.518 160.066 263.588C150.598 263.659 142.234 271.316 142.207 281.023L142.181 294.006L178.11 293.988V293.997Z" fill="#63A67A"/>
<path d="M115.685 329.405C112.381 330.067 109.555 329.67 106.384 329.643L92.5269 296.814L79.1993 296.77L79.0403 329.599C76.1258 329.864 73.7146 329.731 70.4467 329.696V254.782C79.3671 254.72 86.2827 254.544 94.9381 254.72C104.671 254.632 112.85 261.018 115.252 270.45C118.025 281.314 112.328 292.257 101.686 295.887L115.667 329.405H115.685ZM96.8988 287.487C103.231 286.931 107.241 281.402 107.171 275.608C107.1 269.814 103.108 264.586 97.1373 264.056C91.1668 263.526 85.4171 264.065 79.2346 263.826L79.2788 287.655C85.2581 287.47 90.8665 288.009 96.89 287.479L96.8988 287.487Z" fill="#63A67A"/>
<path d="M407.735 254.835C410.509 254.429 413.255 254.632 416.338 254.729L416.32 302.873C416.32 315.167 408.08 325.66 396.201 328.822C380.382 333.026 363.098 321.588 362.974 304.869L362.603 254.756L371.533 254.659L371.506 302.016C371.506 311.926 378.528 320.308 388.702 320.837C397.923 321.323 407.285 314.249 407.364 304.507L407.735 254.835Z" fill="#63A67A"/>
<path d="M35.0654 329.457C31.9918 329.987 29.3157 329.713 26.304 329.599L26.3216 263.738L5.82234 263.658C5.51322 260.814 5.6722 258.12 5.72519 254.729L55.5647 254.641L55.5823 263.623L35.1007 263.72L35.0654 329.457Z" fill="#63A67A"/>
<path d="M505.895 320.944C506.275 323.964 505.957 326.649 506.019 329.714H457.972L457.99 255.083L466.689 255.039L466.716 320.829L505.904 320.944H505.895Z" fill="#63A67A"/>
<path d="M442.18 329.466C439.213 330.005 436.731 329.652 433.516 329.669L433.481 255.127C433.41 254.482 442.896 254.667 442.163 255.489L442.18 329.466Z" fill="#63A67A"/>
<path d="M313.417 372.381C315.078 371.975 316.341 372.019 318.204 372.301L309.416 399.389C307.482 399.787 305.751 399.805 303.896 399.389L297.299 379.385L290.551 399.372C288.811 399.857 287.115 399.646 285.04 399.522L276.19 372.416C277.992 371.948 279.617 371.975 281.366 372.363L288.034 392.704L294.994 372.363C296.575 371.93 298.005 372.045 299.736 372.301L306.573 393.066L313.4 372.381H313.417Z" fill="#152042"/>
<path d="M173.349 385.647C173.464 393.313 168.13 398.904 160.631 399.496C156.136 399.849 151.764 399.522 146.756 399.646L146.668 372.178C151.596 372.231 156.286 371.895 161.002 372.337C168.147 373.008 173.243 378.378 173.349 385.647ZM168.271 385.673C168.174 380.595 164.703 376.974 159.757 376.576C157.142 376.364 154.572 376.515 151.764 376.559V395.203C154.678 395.362 157.425 395.459 160.207 395.15C165.127 394.603 168.368 390.725 168.271 385.673Z" fill="#152042"/>
<path d="M96.0774 399.311C94.3375 399.92 92.8184 399.673 91.0961 399.443L91.052 387.944L77.0796 387.891L76.9206 399.426C75.2337 399.761 73.7411 399.779 71.9923 399.426V372.32C73.7676 372.002 75.2249 372.046 76.9118 372.32L77.0354 383.484H90.9371L91.1138 372.32C92.7919 372.02 94.2668 372.081 96.0156 372.382L96.0686 399.328L96.0774 399.311Z" fill="#152042"/>
<path d="M212.158 387.722L199.272 387.846L199.342 395.45L214.321 395.362C214.586 396.837 214.737 398.215 214.215 399.663L194.158 399.575V372.213L213.747 372.16C214.109 373.582 214.18 375.128 213.694 376.453L199.263 376.523V383.483L212.202 383.695C212.352 385.09 212.467 386.256 212.149 387.74L212.158 387.722Z" fill="#152042"/>
<path d="M234.723 193.276L217.245 193.364L217.271 175.894L234.706 175.903L234.723 193.276Z" fill="#152042"/>
<path d="M234.741 219.489L217.245 219.569L217.271 202.09L234.653 202.081L234.741 219.489Z" fill="#152042"/>
<path d="M261.741 219.498L244.236 219.551L244.245 202.099L261.653 202.081L261.741 219.498Z" fill="#152042"/>
<path d="M261.697 193.267L244.253 193.276L244.183 175.885H261.635L261.697 193.267Z" fill="#63A67A"/>
<path d="M253.085 393.287L239.749 393.331C238.415 395.151 238.398 397.747 236.817 399.258C235.775 400.158 233.602 399.611 231.994 399.311L243.865 372.355C245.543 371.931 247.035 372.125 248.97 372.214L261.043 399.381C259.63 399.567 257.369 400.114 256.106 399.346C254.534 397.836 254.463 395.213 253.085 393.287ZM251.425 389.136L246.444 377.31L241.445 389.189L251.425 389.136Z" fill="#152042"/>
<path d="M354.628 393.261L341.141 393.331C339.949 395.239 339.763 397.571 338.35 399.231C337.264 400.159 334.888 399.576 333.396 399.346L345.336 372.32C347.165 372.028 348.675 372.002 350.468 372.32L362.48 399.346C360.651 399.867 358.982 399.77 357.277 399.417L354.628 393.27V393.261ZM352.932 389.163L347.809 377.61L342.89 389.154H352.941L352.932 389.163Z" fill="#152042"/>
<path d="M435.645 398.559C430.019 401.209 423.271 400.202 418.263 396.934C418.599 395.344 419.208 394.24 420.021 392.951C423.536 395.98 434.426 397.597 434.823 392.412C434.938 390.858 433.834 389.665 432.244 389.206L424.472 386.998C421.186 386.062 418.899 383.766 418.74 380.489C418.599 377.451 420.1 374.421 423.218 373.043C428.102 370.88 433.843 371.454 438.524 374.024C438.294 375.534 437.817 376.841 436.899 377.998C433.163 375.569 423.792 374.598 423.757 379.712C423.748 381.054 424.728 382.211 426.168 382.626L434.231 384.931C437.261 385.797 439.478 387.952 439.769 390.849C440.061 393.746 438.824 397.067 435.645 398.568V398.559Z" fill="#152042"/>
<path d="M401.924 372.408L391.767 390.107L391.502 399.381C390.106 399.823 388.367 399.717 386.777 399.487L386.397 390.099L376.178 372.381C377.945 371.904 379.623 372.09 381.407 372.302L389.276 385.4L397.216 372.426C398.356 371.807 400.405 372.099 401.933 372.399L401.924 372.408Z" fill="#152042"/>
<path d="M123.881 399.293C122.203 399.955 120.507 399.717 118.829 399.399V372.328C120.533 372.002 122.106 372.028 123.863 372.346L123.881 399.293Z" fill="#152042"/>
<path d="M255.205 298.969C252.467 299.526 249.482 299.278 246.806 299.075L248.528 289.978C247.521 288.194 246.567 286.216 248.351 284.467C249.694 283.142 251.831 282.983 253.483 284.317C255.461 285.915 254.516 287.823 253.677 289.89C253.121 292.743 255.09 295.613 255.205 298.969Z" fill="#63A67A"/>
<path d="M336.849 303.579C336.884 313.454 329.015 321.005 319.715 321.482C310.414 321.959 301.45 314.84 301.035 305.037C300.69 296.69 300.796 288.786 300.991 280.413C301.22 270.812 309.673 263.499 318.876 263.517C328.149 263.526 336.725 270.812 336.761 280.448L336.849 303.588V303.579Z" fill="#F6F7F8"/>
<path d="M178.11 293.997L142.181 294.015L142.207 281.031C142.225 271.334 150.545 263.676 160.066 263.597C169.587 263.517 178.083 271.122 178.092 280.819V294.006L178.11 293.997Z" fill="#F6F7F8"/>
<path d="M96.8988 287.487C90.8665 288.017 85.267 287.479 79.2876 287.664L79.2435 263.835C85.4171 264.074 91.1756 263.526 97.1461 264.065C103.117 264.603 107.109 270.044 107.179 275.617C107.25 281.19 103.24 286.94 96.9076 287.496L96.8988 287.487Z" fill="#F6F7F8"/>
<path d="M168.271 385.673C168.368 390.717 165.127 394.603 160.207 395.15C157.434 395.459 154.678 395.362 151.755 395.203V376.559C154.572 376.515 157.142 376.364 159.757 376.576C164.694 376.974 168.165 380.595 168.271 385.673Z" fill="#F6F7F8"/>
<path d="M251.425 389.136L241.445 389.189L246.444 377.31L251.425 389.136Z" fill="#F6F7F8"/>
<path d="M352.932 389.163L342.89 389.145L347.81 377.61L352.932 389.163Z" fill="#F6F7F8"/>
</g>
<defs>
<clipPath id="clip0_15_49">
<rect width="510" height="294.638" fill="white" transform="translate(1 109)"/>
</clipPath>
</defs>
</svg>
