<svg width="512" height="512" viewBox="0 0 512 512" fill="none" xmlns="http://www.w3.org/2000/svg">
<g clip-path="url(#clip0_15_31)">
<path d="M209.76 330.336V182H512V330.336H209.76ZM209.76 330.336V182H0V330.336H209.76ZM302.647 308.261C302.998 308.36 303.185 308.45 303.372 308.45C310.436 308.466 317.492 308.45 324.555 308.483C325.663 308.483 325.639 307.835 325.639 307.065C325.639 302.195 325.712 297.326 325.623 292.465C325.419 281.547 325.207 270.628 324.849 259.718C324.669 254.127 323.284 248.873 319.512 244.495C311.145 234.774 295.095 234.446 285.994 244.012C283.852 246.266 282.295 249.094 280.47 251.652C276.91 243.372 271.101 237.593 261.406 236.733C251.898 235.88 244.916 240.159 239.172 247.414V239.7H216.718V308.475H218.453C224.898 308.475 231.334 308.417 237.779 308.516C239.343 308.54 239.758 308.122 239.75 306.54C239.685 294.679 239.726 282.825 239.71 270.964C239.71 265.226 241.323 260.127 245.51 256.078C248.191 253.48 251.662 253.529 254.383 256.078C255.018 256.668 255.589 257.357 256.102 258.07C258.774 261.742 259.581 265.964 259.589 270.399C259.589 282.465 259.589 294.531 259.589 306.597C259.589 307.204 259.589 307.811 259.589 308.466H282.369C282.369 307.72 282.369 307.106 282.369 306.499C282.369 294.588 282.393 282.678 282.352 270.767C282.336 265.874 283.607 261.455 286.801 257.701C289.033 255.078 291.811 253.652 295.298 254.611C298.948 255.619 301.002 258.357 301.678 261.906C302.264 264.939 302.533 268.071 302.558 271.161C302.664 282.916 302.623 294.67 302.631 306.425C302.631 307.032 302.631 307.638 302.631 308.261H302.647ZM342.162 259.931C348.264 259.931 354.13 259.931 360.004 259.931C365.536 259.931 364.607 260.324 366.245 255.578C366.261 255.529 366.278 255.48 366.294 255.43C367.215 252.291 369.431 250.815 372.559 250.561C373.635 250.479 374.735 250.438 375.794 250.594C379.232 251.102 382.393 252.225 383.835 255.775C384.935 258.463 384.544 261.341 384.568 264.292C383.778 264.292 383.167 264.283 382.556 264.292C378.181 264.365 373.789 264.292 369.422 264.554C361.153 265.054 353.389 267.259 346.537 272.136C341.95 275.407 338.846 279.637 338.414 285.432C338.202 288.318 338.064 291.236 338.284 294.113C339.066 304.212 345.176 310.229 355.214 311.188C359.833 311.63 364.355 311.073 368.901 310.368C372.95 309.737 376.307 308.015 379.02 304.925C380.519 303.22 382.157 301.63 383.737 299.999C383.957 299.769 384.226 299.597 384.691 299.228C384.691 301.884 384.805 304.269 384.65 306.638C384.536 308.302 385.155 308.597 386.654 308.581C392.838 308.499 399.022 308.483 405.205 308.589C406.827 308.614 407.185 308.097 407.177 306.573C407.128 290.883 407.161 275.186 407.12 259.496C407.12 257.955 406.916 256.39 406.574 254.881C404.708 246.791 399.274 242.044 391.803 239.323C381.212 235.462 370.4 235.47 359.499 237.651C353.356 238.88 348.639 242.249 345.298 247.528C342.952 251.242 341.803 255.299 342.153 259.939L342.162 259.931ZM494.182 266.12C494.931 258.045 491.795 247.627 482.482 242.282C471.133 235.774 459.043 234.692 446.463 238.028C436.247 240.733 428.498 246.496 424.27 256.381C419.944 266.505 419.162 277.014 421.899 287.703C424.189 296.646 429.15 303.663 437.68 307.458C441.681 309.237 446.04 310.442 450.358 311.245C460.411 313.106 470.253 311.671 479.541 307.556C488.414 303.63 492.707 296.023 494.369 286.744C494.728 284.752 494.785 282.703 494.988 280.596C487.664 280.596 480.714 280.596 473.765 280.596C472.502 280.596 471.801 281.35 471.475 282.522C471.084 283.916 470.734 285.326 470.253 286.686C468.396 291.941 464.982 294.31 459.067 294.515C454.138 294.687 450.643 292.342 448.5 287.465C445.844 281.416 445.363 275.071 445.999 268.595C446.357 264.947 447.221 261.439 449.404 258.414C452.337 254.365 456.216 252.209 461.275 253.127C466.22 254.029 469.023 257.316 470.27 262.078C470.457 262.775 470.669 263.472 470.856 264.169C471.215 265.488 471.981 266.095 473.423 266.087C479.297 266.046 485.171 266.087 491.053 266.111C492.072 266.111 493.098 266.111 494.19 266.111L494.182 266.12ZM503.054 205.969C503.128 197.075 496.056 189.845 487.175 189.73C478.376 189.615 471.092 196.812 471.019 205.69C470.946 214.584 478.042 221.838 486.898 221.929C495.738 222.011 502.981 214.854 503.054 205.969Z" fill="white"/>
<path d="M209.76 330.336H0V182H209.76V330.336ZM66.0093 299.589C66.1397 299.654 66.2619 299.72 66.3922 299.785C66.3922 302.212 66.4493 304.646 66.3678 307.073C66.3271 308.368 66.767 308.753 68.0461 308.745C74.5395 308.688 81.0329 308.72 87.5263 308.72C88.8733 308.72 89.5468 308.035 89.5468 306.663C89.5468 292.113 89.5468 277.563 89.5468 263.013C89.555 245.668 89.5876 228.322 89.6039 210.977C89.6039 208.747 89.0743 208.165 86.9234 208.149C80.5848 208.108 74.2462 208.092 67.9076 208.067C67.4107 208.067 66.9055 208.141 66.2374 208.198V246.758C65.6101 246.151 65.2598 245.791 64.885 245.463C62.7586 243.594 60.8521 241.372 58.4731 239.921C42.8303 230.363 22.682 237.921 16.8404 255.357C11.9195 270.03 13.4186 284.219 19.969 298.023C21.5414 301.327 23.7656 304.179 26.6824 306.425C37.7301 314.934 54.8964 312.917 63.9725 302.048C64.6487 301.236 65.325 300.417 66.0012 299.597L66.0093 299.589ZM141.551 286.318C141.738 288.58 141.901 290.678 142.081 292.785C142.716 300.187 147.034 305.163 153.413 307.86C168.127 314.081 182.76 313.36 196.944 305.835C199.918 304.261 202.346 302.023 204 299.056C210.42 287.58 204.195 271.669 191.315 268.554C183.729 266.726 176.397 263.824 168.991 261.283C166.034 260.275 164.803 255.988 166.759 253.807C168.47 251.906 170.661 250.742 173.26 250.627C177.065 250.455 180.047 253.012 181.13 257.578C181.505 259.152 182.287 259.57 183.713 259.554C187.942 259.496 192.162 259.488 196.39 259.463C198.997 259.455 201.605 259.463 204.415 259.463C204.13 257.111 203.902 255.217 203.666 253.332C202.696 245.618 197.995 240.053 190.769 238.151C181.921 235.823 172.975 235.2 163.997 237.175C161.096 237.815 158.171 238.659 155.483 239.897C145.592 244.446 141.901 253.299 144.142 264.079C145.543 270.8 149.226 275.276 155.972 277.21C161.267 278.727 166.465 280.588 171.704 282.293C174.205 283.104 176.739 283.817 179.191 284.76C183.738 286.498 184.52 291.203 180.805 294.334C177.7 296.949 174.124 297.376 170.327 296.261C165.113 294.728 163.606 292.875 163.133 287.473C163.035 286.334 162.424 286.186 161.479 286.195C155.295 286.219 149.112 286.203 142.92 286.211C142.569 286.211 142.211 286.268 141.551 286.326V286.318ZM127.644 273.997C127.644 263.021 127.619 252.045 127.668 241.069C127.668 239.733 127.326 239.282 125.941 239.298C119.447 239.364 112.954 239.372 106.469 239.298C104.978 239.282 104.562 239.708 104.57 241.208C104.619 263.103 104.611 285.006 104.57 306.901C104.57 308.286 104.896 308.778 106.363 308.761C112.799 308.688 119.244 308.679 125.68 308.761C127.244 308.786 127.684 308.343 127.668 306.761C127.603 295.834 127.635 284.916 127.635 273.989L127.644 273.997ZM116.066 225.757C119.464 225.757 122.861 225.732 126.259 225.773C127.244 225.781 127.635 225.445 127.627 224.429C127.595 219.461 127.595 214.494 127.627 209.526C127.627 208.493 127.22 208.19 126.25 208.198C119.504 208.223 112.758 208.231 106.021 208.198C104.962 208.198 104.57 208.526 104.579 209.625C104.619 214.535 104.619 219.453 104.579 224.371C104.57 225.478 104.986 225.798 106.029 225.781C109.377 225.732 112.718 225.765 116.066 225.765V225.757Z" fill="#EC2229"/>
<path d="M302.648 308.262C302.648 307.639 302.648 307.033 302.648 306.426C302.64 294.671 302.68 282.916 302.574 271.162C302.542 268.071 302.273 264.94 301.694 261.907C301.01 258.349 298.965 255.62 295.315 254.612C291.828 253.644 289.05 255.079 286.817 257.702C283.624 261.456 282.353 265.874 282.369 270.768C282.41 282.679 282.385 294.589 282.385 306.5C282.385 307.115 282.385 307.721 282.385 308.467H259.606C259.606 307.803 259.606 307.197 259.606 306.598C259.606 294.532 259.606 282.466 259.606 270.399C259.606 265.965 258.799 261.743 256.118 258.071C255.605 257.366 255.035 256.677 254.399 256.079C251.678 253.538 248.207 253.489 245.527 256.079C241.347 260.128 239.726 265.235 239.726 270.965C239.742 282.826 239.702 294.679 239.767 306.541C239.775 308.123 239.36 308.541 237.795 308.516C231.351 308.426 224.914 308.475 218.47 308.475H216.734V239.701H239.188V247.414C244.932 240.16 251.914 235.881 261.422 236.733C271.118 237.602 276.919 243.381 280.487 251.652C282.312 249.095 283.868 246.267 286.011 244.013C295.103 234.446 311.162 234.774 319.529 244.496C323.293 248.874 324.678 254.128 324.865 259.718C325.216 270.629 325.436 281.548 325.639 292.466C325.729 297.335 325.647 302.204 325.656 307.065C325.656 307.836 325.68 308.484 324.572 308.484C317.508 308.451 310.453 308.459 303.389 308.451C303.202 308.451 303.006 308.352 302.664 308.262H302.648Z" fill="#040707"/>
<path d="M342.161 259.932C341.819 255.3 342.959 251.234 345.306 247.521C348.646 242.242 353.363 238.873 359.506 237.643C370.416 235.463 381.219 235.455 391.81 239.316C399.282 242.037 404.716 246.783 406.582 254.874C406.924 256.374 407.127 257.948 407.127 259.489C407.168 275.178 407.127 290.876 407.184 306.565C407.184 308.09 406.834 308.606 405.213 308.582C399.029 308.475 392.845 308.492 386.661 308.574C385.162 308.59 384.543 308.295 384.657 306.631C384.812 304.262 384.698 301.885 384.698 299.221C384.242 299.59 383.965 299.762 383.745 299.991C382.164 301.622 380.526 303.205 379.027 304.918C376.314 308.008 372.949 309.729 368.908 310.361C364.362 311.066 359.841 311.623 355.221 311.18C345.184 310.221 339.073 304.205 338.291 294.106C338.071 291.228 338.209 288.31 338.421 285.425C338.845 279.629 341.957 275.391 346.544 272.129C353.396 267.243 361.16 265.038 369.43 264.547C373.797 264.284 378.188 264.358 382.563 264.284C383.174 264.276 383.785 264.284 384.576 264.284C384.551 261.333 384.934 258.464 383.842 255.767C382.392 252.226 379.239 251.095 375.801 250.587C374.742 250.431 373.634 250.464 372.567 250.554C369.446 250.808 367.222 252.284 366.301 255.423C366.285 255.472 366.269 255.521 366.252 255.571C364.615 260.325 365.544 259.923 360.012 259.923C354.137 259.923 348.271 259.923 342.169 259.923L342.161 259.932ZM384.152 277.031C379.671 277.596 375.166 278.006 370.725 278.793C368.697 279.154 366.66 280.006 364.867 281.056C361.511 283.015 360.965 286.318 361.478 289.868C361.934 293.056 363.939 295.335 367.14 295.835C379.858 297.819 385.635 289.778 384.152 277.039V277.031Z" fill="#040707"/>
<path d="M494.182 266.12C493.09 266.12 492.063 266.12 491.045 266.12C485.171 266.104 479.297 266.055 473.414 266.096C471.972 266.104 471.198 265.497 470.848 264.177C470.66 263.481 470.44 262.784 470.261 262.087C469.015 257.325 466.212 254.038 461.267 253.136C456.207 252.218 452.329 254.365 449.396 258.423C447.204 261.448 446.341 264.956 445.99 268.604C445.355 275.088 445.836 281.424 448.492 287.474C450.634 292.351 454.138 294.696 459.059 294.523C464.965 294.319 468.387 291.941 470.245 286.695C470.726 285.334 471.084 283.925 471.467 282.531C471.793 281.351 472.494 280.605 473.756 280.605C480.706 280.588 487.656 280.605 494.98 280.605C494.776 282.711 494.719 284.761 494.361 286.753C492.691 296.032 488.397 303.639 479.533 307.565C470.245 311.672 460.411 313.115 450.349 311.254C446.031 310.451 441.672 309.254 437.672 307.467C429.142 303.672 424.18 296.655 421.891 287.712C419.153 277.022 419.935 266.514 424.262 256.39C428.49 246.504 436.238 240.75 446.455 238.037C459.034 234.7 471.125 235.782 482.474 242.291C491.786 247.636 494.931 258.054 494.173 266.128L494.182 266.12Z" fill="#040707"/>
<path d="M503.054 205.969C502.981 214.855 495.738 222.011 486.898 221.929C478.042 221.847 470.946 214.592 471.019 205.69C471.092 196.813 478.376 189.616 487.175 189.73C496.056 189.845 503.127 197.083 503.054 205.969ZM473.528 205.871C473.545 213.322 479.59 219.412 486.996 219.429C494.467 219.445 500.561 213.314 500.553 205.797C500.545 198.37 494.499 192.28 487.077 192.222C479.655 192.165 473.512 198.362 473.528 205.871Z" fill="#040707"/>
<path d="M66.0091 299.589C65.3329 300.409 64.6648 301.228 63.9804 302.04C54.9044 312.909 37.738 314.926 26.6903 306.417C23.7736 304.171 21.5412 301.319 19.9769 298.015C13.4265 284.211 11.9274 270.03 16.8484 255.349C22.69 237.913 42.8382 230.364 58.481 239.913C60.86 241.364 62.7746 243.586 64.8929 245.455C65.2677 245.783 65.618 246.143 66.2454 246.75V208.19C66.9135 208.133 67.4186 208.059 67.9156 208.059C74.2542 208.075 80.5928 208.1 86.9313 208.141C89.0822 208.157 89.6118 208.739 89.6118 210.969C89.5955 228.314 89.5629 245.66 89.5548 263.005C89.5466 277.555 89.5548 292.105 89.5548 306.655C89.5548 308.021 88.8813 308.707 87.5343 308.712C81.0409 308.712 74.5475 308.68 68.0541 308.737C66.775 308.745 66.3269 308.36 66.3757 307.065C66.4572 304.638 66.4002 302.212 66.4002 299.777C66.2698 299.712 66.1476 299.646 66.0173 299.581L66.0091 299.589ZM66.3676 273.35C66.2128 268.136 65.561 263.021 62.5547 258.554C59.8335 254.513 56.2242 252.021 51.1159 252.758C47.1074 253.34 44.4188 255.882 42.6753 259.365C37.5832 269.546 38.292 279.662 43.9463 289.285C48.411 296.892 58.921 296.228 62.9457 288.367C65.3573 283.662 66.2209 278.604 66.3594 273.358L66.3676 273.35Z" fill="white"/>
<path d="M141.551 286.318C142.211 286.26 142.562 286.203 142.92 286.203C149.104 286.203 155.288 286.203 161.48 286.187C162.425 286.187 163.036 286.326 163.133 287.465C163.606 292.867 165.113 294.72 170.327 296.253C174.124 297.368 177.701 296.941 180.805 294.326C184.52 291.195 183.738 286.49 179.192 284.752C176.739 283.809 174.206 283.104 171.704 282.285C166.466 280.58 161.268 278.711 155.972 277.202C149.226 275.276 145.543 270.8 144.142 264.071C141.902 253.291 145.592 244.438 155.483 239.889C158.172 238.651 161.097 237.807 163.997 237.167C172.983 235.192 181.921 235.815 190.769 238.143C197.996 240.045 202.705 245.61 203.666 253.324C203.902 255.209 204.131 257.103 204.416 259.456C201.605 259.456 198.998 259.447 196.391 259.456C192.162 259.472 187.942 259.488 183.713 259.546C182.296 259.562 181.506 259.144 181.131 257.57C180.055 253.004 177.065 250.447 173.261 250.619C170.653 250.742 168.47 251.898 166.759 253.799C164.804 255.98 166.034 260.267 168.991 261.275C176.397 263.808 183.73 266.71 191.315 268.546C204.196 271.661 210.42 287.564 204 299.048C202.338 302.015 199.918 304.253 196.945 305.827C182.76 313.352 168.128 314.073 153.414 307.852C147.034 305.155 142.716 300.179 142.081 292.777C141.902 290.679 141.731 288.572 141.551 286.31V286.318Z" fill="white"/>
<path d="M127.643 273.998C127.643 284.925 127.611 295.844 127.676 306.771C127.684 308.344 127.252 308.787 125.688 308.771C119.252 308.68 112.807 308.689 106.371 308.771C104.904 308.787 104.57 308.295 104.578 306.91C104.619 285.015 104.619 263.112 104.578 241.218C104.578 239.717 104.994 239.291 106.477 239.308C112.97 239.381 119.463 239.381 125.949 239.308C127.334 239.291 127.684 239.742 127.676 241.078C127.627 252.054 127.652 263.03 127.652 274.006L127.643 273.998Z" fill="white"/>
<path d="M116.066 225.757C112.718 225.757 109.369 225.732 106.029 225.773C104.986 225.79 104.57 225.47 104.578 224.363C104.619 219.453 104.619 214.535 104.578 209.617C104.57 208.527 104.961 208.19 106.02 208.19C112.766 208.223 119.512 208.223 126.25 208.19C127.228 208.19 127.635 208.494 127.627 209.518C127.594 214.486 127.594 219.453 127.627 224.421C127.627 225.437 127.244 225.773 126.258 225.765C122.861 225.724 119.463 225.749 116.066 225.749V225.757Z" fill="white"/>
<path d="M384.153 277.031C385.644 289.769 379.859 297.811 367.141 295.827C363.939 295.327 361.935 293.048 361.479 289.859C360.965 286.31 361.511 283.006 364.868 281.047C366.66 279.998 368.697 279.146 370.726 278.785C375.166 277.998 379.672 277.588 384.153 277.022V277.031Z" fill="white"/>
<path d="M473.529 205.871C473.513 198.362 479.656 192.165 487.078 192.223C494.492 192.28 500.545 198.37 500.554 205.797C500.562 213.314 494.467 219.445 486.996 219.429C479.591 219.413 473.545 213.33 473.529 205.871ZM496.358 214.207C494.272 211.256 492.455 208.683 490.638 206.117C490.565 206.141 490.744 206.076 490.923 206.01C493.767 205.01 495.03 203.117 494.663 200.387C494.305 197.723 492.659 196.28 489.628 196.133C487.575 196.034 485.505 196.075 483.444 196.067C482.287 196.067 481.13 196.067 479.99 196.067V214.101H483.599V206.814C485.685 206.355 487.045 207.076 488.072 208.715C489.058 210.289 490.133 211.814 491.2 213.33C491.445 213.683 491.836 214.134 492.194 214.166C493.4 214.273 494.614 214.207 496.358 214.207Z" fill="white"/>
<path d="M66.367 273.35C66.2285 278.596 65.3649 283.654 62.9533 288.359C58.9286 296.22 48.4186 296.884 43.9538 289.277C38.2996 279.654 37.5908 269.538 42.6829 259.358C44.4182 255.882 47.1068 253.333 51.1235 252.751C56.2318 252.013 59.8411 254.505 62.5623 258.546C65.5686 263.013 66.2204 268.129 66.3752 273.342L66.367 273.35Z" fill="#EC2229"/>
<path d="M496.357 214.207C494.613 214.207 493.399 214.273 492.193 214.166C491.835 214.134 491.444 213.683 491.199 213.33C490.124 211.814 489.057 210.289 488.071 208.715C487.044 207.084 485.675 206.354 483.598 206.813V214.101H479.989V196.067C481.129 196.067 482.286 196.067 483.443 196.067C485.504 196.083 487.566 196.034 489.627 196.132C492.658 196.28 494.303 197.723 494.662 200.387C495.029 203.116 493.766 205.01 490.922 206.01C490.743 206.076 490.564 206.141 490.637 206.117C492.454 208.682 494.271 211.256 496.357 214.207ZM483.622 203.6C485.529 203.6 487.272 203.69 489.016 203.567C490.279 203.485 490.922 202.575 490.898 201.329C490.882 200.141 490.23 199.305 489.032 199.231C487.256 199.133 485.472 199.206 483.614 199.206V203.6H483.622Z" fill="#040707"/>
<path d="M483.623 203.6V199.206C485.48 199.206 487.264 199.132 489.041 199.231C490.23 199.296 490.882 200.141 490.906 201.329C490.931 202.583 490.287 203.485 489.024 203.567C487.289 203.682 485.537 203.6 483.631 203.6H483.623Z" fill="white"/>
</g>
<defs>
<clipPath id="clip0_15_31">
<rect width="512" height="148.336" fill="white" transform="translate(0 182)"/>
</clipPath>
</defs>
</svg>
