<svg width="346" height="106" viewBox="0 0 346 106" fill="none" xmlns="http://www.w3.org/2000/svg">
<path d="M47.2619 36.1045C53.4025 36.1045 58.3987 31.1083 58.3987 24.9677C58.3987 18.827 53.4025 13.8308 47.2619 13.8308C41.1212 13.8308 36.125 18.827 36.125 24.9677C36.125 31.1083 41.1212 36.1045 47.2619 36.1045ZM47.2619 20.7425C49.589 20.7425 51.4836 22.637 51.4836 24.9642C51.4836 27.2913 49.589 29.1859 47.2619 29.1859C44.9347 29.1859 43.0402 27.2913 43.0402 24.9642C43.0402 22.637 44.9347 20.7425 47.2619 20.7425Z" fill="#5754A1"/>
<path d="M95.2216 45.8493C95.2216 45.6365 95.2007 45.4271 95.1658 45.2213V33.889C95.1658 28.8963 92.4932 24.228 88.1878 21.6985L54.5434 1.94382C50.1403 -0.641528 44.6696 -0.648506 40.2595 1.92637L7.00939 21.3322C2.68652 23.8547 0 28.5334 0 33.5401V72.8785C0 77.9201 2.71444 82.6128 7.08266 85.1284L39.9908 104.077C42.1645 105.33 44.6033 105.958 47.0456 105.958C49.4879 105.958 51.9127 105.333 54.0829 104.091L88.0727 84.5841C92.4514 82.072 95.1728 77.3724 95.1728 72.3238V46.4808C95.2077 46.275 95.2286 46.0691 95.2286 45.8528L95.2216 45.8493ZM24.894 42.0079H7.68277V35.7626L24.894 42.0079ZM87.4795 35.4312V42.0079H69.3507L87.4795 35.4312ZM7.68277 49.6942H25.6267L7.68277 56.2046V49.6942ZM87.4795 49.6942V56.5361L68.618 49.6942H87.4795ZM44.1358 8.56244C45.1371 7.97629 46.2641 7.68321 47.3875 7.68321C48.511 7.68321 49.6484 7.97978 50.6532 8.56942L84.2976 28.3276C84.3255 28.3415 84.3464 28.3625 84.3743 28.3799L47.1258 41.8928L10.146 28.4776C10.3798 28.2927 10.624 28.1217 10.8857 27.9682L44.1393 8.56244H44.1358ZM10.9136 78.4679C8.92136 77.32 7.68277 75.1778 7.68277 72.8785V64.3794L43.5077 51.3829V97.2387L10.9136 78.4679ZM84.2418 77.9132L51.1975 96.8793V51.5468L87.4795 64.7108V72.3203C87.4795 74.623 86.2375 76.7688 84.2418 77.9132Z" fill="#5754A1"/>
<path d="M131.769 31.0627V79.0259H121.396V25.9932H126.776C129.504 25.9932 131.769 28.3343 131.769 31.0627Z" fill="#5754A1"/>
<path d="M144.559 25.9932C147.993 25.9932 149.629 27.7098 149.552 31.0627V34.1051H139.179V25.9932H144.559ZM144.559 37.7686C147.912 37.7686 149.552 39.4049 149.552 42.7613V79.0259H139.179V37.7686H144.559Z" fill="#5754A1"/>
<path d="M165.769 43.5394C168.421 39.2514 172.321 37.1441 177.468 37.1441C188.465 37.5348 193.925 44.7082 193.925 58.7479C193.925 72.7876 187.53 79.4167 174.739 79.6505C161.872 79.7272 155.396 73.5657 155.396 61.1658V25.9932H160.623C164.056 25.9932 165.769 27.7866 165.769 31.2197V43.5429V43.5394ZM165.769 58.2804C165.692 66.626 168.497 70.8373 174.425 70.8373C180.353 70.8373 183.315 66.626 183.315 58.2804C183.081 50.3255 180.196 46.4248 174.579 46.4248C168.961 46.4248 166.076 50.3255 165.766 58.2804H165.769Z" fill="#5754A1"/>
<path d="M217.008 79.961C204.528 79.5702 198.29 72.3166 198.29 58.2804C198.29 44.2441 204.608 37.2243 217.165 37.144C230.267 37.144 236.428 45.1757 235.65 61.3228H208.977C209.367 67.6413 212.096 70.8372 217.165 70.8372C219.583 70.8372 221.844 69.8219 223.871 67.8751C224.806 66.8598 225.979 66.3923 227.381 66.3923H235.026C232.765 75.1287 227.147 79.9645 217.008 79.9645V79.961ZM209.13 53.9121H224.649C224.025 48.4519 221.453 45.6432 217.005 45.6432C212.556 45.6432 209.908 48.4519 209.127 53.9121H209.13Z" fill="#5754A1"/>
<path d="M250.855 31.0627V79.0259H240.482V25.9932H245.862C248.591 25.9932 250.855 28.3343 250.855 31.0627Z" fill="#5754A1"/>
<path d="M291.408 62.5719C291.408 69.6685 289.614 74.3472 285.947 76.6116C282.28 78.7189 278.226 79.8075 273.781 79.8075C269.336 79.8075 265.669 78.6387 262.083 76.2976C258.496 74.0367 256.703 69.5115 256.703 62.5719V37.7721H267.075V64.6792C267.075 69.2812 269.417 71.5421 274.095 71.5421C278.774 71.5421 281.115 69.2812 281.115 64.6792V42.9184C281.038 39.4852 282.675 37.7721 286.108 37.7721H291.411V62.5719H291.408Z" fill="#5754A1"/>
<path d="M306.306 31.0627V79.0259H295.933V25.9932H301.313C304.041 25.9932 306.306 28.3343 306.306 31.0627Z" fill="#5754A1"/>
<path d="M322.837 48.5321H312.464C313.713 40.8877 319.093 37.144 328.607 37.144C339.995 37.144 345.766 40.8877 346 48.5321V62.5718C346 73.9599 339.137 79.0294 327.983 79.8075C318.078 80.589 311.215 75.987 311.215 66.8598C311.448 56.9545 318.625 54.3029 329.075 53.2876C333.52 52.7433 335.781 51.4175 335.781 49.1532C335.547 46.812 333.363 45.6432 329.075 45.6432C325.408 45.6432 323.381 46.5783 322.837 48.5286V48.5321ZM335.941 62.1008V58.2804C333.523 59.2957 330.715 60.1505 327.676 60.775C323.541 61.5565 321.437 63.5034 321.437 66.5458C321.671 69.822 323.388 71.3815 326.664 71.3815C332.435 71.3815 335.945 67.9484 335.945 62.1008H335.941Z" fill="#5754A1"/>
<path d="M217.567 26.8097C220.996 26.8097 222.636 28.5263 222.559 31.8792V34.9216H212.187V26.8097H217.567Z" fill="#5754A1"/>
</svg>
