<svg width="460" height="460" viewBox="0 0 460 460" fill="none" xmlns="http://www.w3.org/2000/svg">
<g clip-path="url(#clip0_9_2)">
<path d="M54.8081 91.668L91.2392 55.2368C108.015 38.4611 115.933 30.5794 125.024 24.8374C134.635 18.7663 145.235 14.4225 156.343 12.0031C166.849 9.71506 178.021 9.77371 201.745 9.95363L255.827 10.3645C279.062 10.5407 290.003 10.648 300.281 13.0044C311.149 15.4961 321.51 19.8339 330.911 25.8283C339.802 31.4974 347.557 39.2164 363.987 55.6463L404.405 96.0639C420.83 112.489 428.546 120.242 434.214 129.13C440.208 138.529 444.546 148.886 447.038 159.75C449.396 170.025 449.505 180.963 449.686 204.191L450.108 258.243C450.293 281.955 450.355 293.121 448.071 303.622C445.732 314.378 441.588 324.658 435.819 334.027L435.256 334.931C429.522 344.019 421.65 351.938 404.894 368.714L404.893 368.715L368.484 405.168C351.707 421.966 343.788 429.858 334.694 435.608C325.079 441.687 314.474 446.038 303.359 448.461C292.847 450.753 281.666 450.695 257.925 450.517L203.806 450.112L203.789 450.111L203.771 450.112L203.771 450.112C180.557 449.938 169.62 449.829 159.346 447.475C148.477 444.983 138.115 440.646 128.712 434.651C119.82 428.982 112.064 421.261 95.6324 404.829L55.2182 364.415C38.7884 347.985 31.0687 340.231 25.3996 331.34C19.4052 321.938 15.0674 311.578 12.5757 300.71C10.2192 290.432 10.112 279.49 9.93578 256.255L9.5256 202.173C9.34569 178.449 9.28696 167.277 11.5751 156.772C13.9944 145.663 18.3375 135.064 24.4087 125.452C30.1507 116.362 38.0322 108.444 54.8081 91.668Z" fill="black" stroke="white" stroke-width="9"/>
<g clip-path="url(#clip1_9_2)">
<path d="M268.313 225.048C283.776 208.667 303.759 212.122 306.978 192.64C308.17 185.39 308.48 176.227 307.04 169.27C290.525 169.101 285.989 156.791 278.668 142.708C269.04 124.213 242.943 131.309 227.047 136.43C218.673 123.534 213.209 110.176 208.271 96C190.037 117.287 181.71 143.896 185.13 171.368C165.426 206.014 153.353 233.178 151.093 273.392C149.994 292.905 159.389 309.394 175.952 319.683C214.23 343.469 252.169 334.383 282.878 364C331.543 273.237 236.365 258.892 268.313 225.033V225.048Z" fill="white"/>
<path d="M268.313 225.048C236.38 258.892 331.543 273.237 282.878 364.015C252.153 334.399 214.215 343.484 175.952 319.698C159.389 309.394 149.978 292.889 151.093 273.391C153.368 233.178 165.426 206.014 185.13 171.368C181.71 143.88 190.037 117.272 208.271 96C213.193 110.16 218.673 123.519 227.047 136.43C242.943 131.309 269.04 124.213 278.668 142.708C285.989 156.776 290.525 169.085 307.04 169.27C308.48 176.227 308.17 185.39 306.978 192.64C303.759 212.137 283.776 208.667 268.313 225.048Z" fill="white"/>
</g>
</g>
<defs>
<clipPath id="clip0_9_2">
<rect width="460" height="460" fill="white"/>
</clipPath>
<clipPath id="clip1_9_2">
<rect width="157" height="268" fill="white" transform="translate(151 96)"/>
</clipPath>
</defs>
</svg>
