<svg width="460" height="460" viewBox="0 0 460 460" fill="none" xmlns="http://www.w3.org/2000/svg">
<g clip-path="url(#clip0_9_12)">
<path d="M203.772 454.612L257.891 455.017C281.431 455.194 293.2 455.282 304.317 452.858C315.945 450.323 327.04 445.772 337.099 439.412C346.716 433.331 355.033 425.003 371.668 408.348L408.077 371.895L408.077 371.894C424.691 355.26 432.998 346.943 439.062 337.332C445.405 327.278 449.942 316.194 452.468 304.578C454.883 293.473 454.791 281.718 454.608 258.208L454.187 204.156C454.007 181.125 453.917 169.61 451.424 158.744C448.817 147.378 444.279 136.543 438.009 126.711C432.015 117.311 423.872 109.168 407.586 92.8822L367.169 52.4648C350.878 36.1741 342.733 28.0287 333.33 22.0336C323.495 15.7625 312.656 11.2249 301.287 8.61824C290.418 6.12628 278.899 6.03892 255.861 5.86421L201.779 5.45403C178.257 5.27564 166.495 5.18646 155.385 7.60623C143.765 10.1372 132.676 14.6811 122.621 21.0324C113.007 27.1047 104.691 35.4213 88.0574 52.0546L51.6263 88.4858C34.993 105.119 26.6763 113.436 20.6041 123.049C14.2527 133.104 9.70887 144.193 7.17786 155.814C4.75809 166.924 4.84728 178.685 5.02567 202.207L5.02568 202.207L5.43583 256.289C5.61055 279.327 5.69792 290.846 8.18988 301.715C10.7965 313.085 15.3341 323.923 21.6052 333.759C27.6004 343.161 35.7457 351.306 52.0364 367.597L92.4501 408.011C108.743 424.304 116.889 432.45 126.293 438.445C136.13 444.717 146.969 449.255 158.34 451.861C169.211 454.352 180.731 454.439 203.772 454.612H203.772Z" fill="white"/>
<g clip-path="url(#clip1_9_12)">
<path d="M268.313 225.048C283.776 208.667 303.759 212.122 306.978 192.64C308.17 185.39 308.48 176.227 307.04 169.27C290.525 169.101 285.989 156.791 278.668 142.708C269.04 124.213 242.943 131.309 227.047 136.43C218.673 123.534 213.209 110.176 208.271 96C190.037 117.287 181.71 143.896 185.13 171.368C165.426 206.014 153.353 233.178 151.093 273.392C149.994 292.905 159.389 309.394 175.952 319.683C214.23 343.469 252.169 334.383 282.878 364C331.543 273.237 236.365 258.892 268.313 225.033V225.048Z" fill="black"/>
<path d="M268.313 225.048C236.38 258.892 331.543 273.237 282.878 364.015C252.153 334.399 214.215 343.484 175.952 319.698C159.389 309.394 149.978 292.889 151.093 273.391C153.368 233.178 165.426 206.014 185.13 171.368C181.71 143.88 190.037 117.272 208.271 96C213.193 110.16 218.673 123.519 227.047 136.43C242.943 131.309 269.04 124.213 278.668 142.708C285.989 156.776 290.525 169.085 307.04 169.27C308.48 176.227 308.17 185.39 306.978 192.64C303.759 212.137 283.776 208.667 268.313 225.048Z" fill="black"/>
</g>
</g>
<defs>
<clipPath id="clip0_9_12">
<rect width="460" height="460" fill="white"/>
</clipPath>
<clipPath id="clip1_9_12">
<rect width="157" height="268" fill="white" transform="translate(151 96)"/>
</clipPath>
</defs>
</svg>
